<svg width="110" height="32" viewBox="0 0 110 32" fill="none" xmlns="http://www.w3.org/2000/svg">
<path d="M12.024 25H2.16V7.864H12.024V10.84H5.784V14.608H11.592V17.584H5.784V22H12.024V25ZM22.6217 11.656C22.7977 11.656 23.0057 11.664 23.2457 11.68C23.4857 11.696 23.6777 11.72 23.8217 11.752L23.5577 15.112C23.4297 15.08 23.2617 15.056 23.0537 15.04C22.8457 15.008 22.6617 14.992 22.5017 14.992C21.8937 14.992 21.3097 15.104 20.7497 15.328C20.1897 15.536 19.7337 15.88 19.3817 16.36C19.0457 16.84 18.8777 17.496 18.8777 18.328V25H15.3017V11.896H18.0137L18.5417 14.104H18.7097C19.0937 13.432 19.6217 12.856 20.2937 12.376C20.9657 11.896 21.7417 11.656 22.6217 11.656ZM28.0001 6.76C28.5281 6.76 28.9841 6.888 29.3681 7.144C29.7521 7.384 29.9441 7.84 29.9441 8.512C29.9441 9.168 29.7521 9.624 29.3681 9.88C28.9841 10.136 28.5281 10.264 28.0001 10.264C27.4561 10.264 26.9921 10.136 26.6081 9.88C26.2401 9.624 26.0561 9.168 26.0561 8.512C26.0561 7.84 26.2401 7.384 26.6081 7.144C26.9921 6.888 27.4561 6.76 28.0001 6.76ZM29.7761 11.896V25H26.2001V11.896H29.7761ZM38.8406 25.24C36.8886 25.24 35.3766 24.704 34.3046 23.632C33.2486 22.56 32.7206 20.856 32.7206 18.52C32.7206 16.92 32.9926 15.616 33.5366 14.608C34.0806 13.6 34.8326 12.856 35.7926 12.376C36.7686 11.896 37.8886 11.656 39.1526 11.656C40.0486 11.656 40.8246 11.744 41.4806 11.92C42.1526 12.096 42.7366 12.304 43.2326 12.544L42.1766 15.304C41.6166 15.08 41.0886 14.896 40.5926 14.752C40.1126 14.608 39.6326 14.536 39.1526 14.536C37.2966 14.536 36.3686 15.856 36.3686 18.496C36.3686 19.808 36.6086 20.776 37.0886 21.4C37.5846 22.024 38.2726 22.336 39.1526 22.336C39.9046 22.336 40.5686 22.24 41.1446 22.048C41.7206 21.84 42.2806 21.56 42.8246 21.208V24.256C42.2806 24.608 41.7046 24.856 41.0966 25C40.5046 25.16 39.7526 25.24 38.8406 25.24ZM62.4671 20.248C62.4671 21.768 61.9151 22.984 60.8111 23.896C59.7231 24.792 58.1711 25.24 56.1551 25.24C54.3471 25.24 52.7311 24.896 51.3071 24.208V20.824C52.1231 21.176 52.9631 21.504 53.8271 21.808C54.7071 22.096 55.5791 22.24 56.4431 22.24C57.3391 22.24 57.9711 22.072 58.3391 21.736C58.7231 21.384 58.9151 20.944 58.9151 20.416C58.9151 19.984 58.7631 19.616 58.4591 19.312C58.1711 19.008 57.7791 18.728 57.2831 18.472C56.7871 18.2 56.2191 17.912 55.5791 17.608C55.1791 17.416 54.7471 17.192 54.2831 16.936C53.8191 16.664 53.3711 16.336 52.9391 15.952C52.5231 15.552 52.1791 15.072 51.9071 14.512C51.6351 13.952 51.4991 13.28 51.4991 12.496C51.4991 10.96 52.0191 9.768 53.0591 8.92C54.0991 8.056 55.5151 7.624 57.3071 7.624C58.2031 7.624 59.0511 7.728 59.8511 7.936C60.6511 8.144 61.4991 8.44 62.3951 8.824L61.2191 11.656C60.4351 11.336 59.7311 11.088 59.1071 10.912C58.4831 10.736 57.8431 10.648 57.1871 10.648C56.4991 10.648 55.9711 10.808 55.6031 11.128C55.2351 11.448 55.0511 11.864 55.0511 12.376C55.0511 12.984 55.3231 13.464 55.8671 13.816C56.4111 14.168 57.2191 14.6 58.2911 15.112C59.1711 15.528 59.9151 15.96 60.5231 16.408C61.1471 16.856 61.6271 17.384 61.9631 17.992C62.2991 18.6 62.4671 19.352 62.4671 20.248ZM68.8699 6.76V10.48C68.8699 11.136 68.8459 11.76 68.7979 12.352C68.7659 12.928 68.7339 13.336 68.7019 13.576H68.8939C69.3099 12.904 69.8459 12.416 70.5019 12.112C71.1579 11.808 71.8859 11.656 72.6859 11.656C74.0939 11.656 75.2299 12.04 76.0939 12.808C76.9579 13.56 77.3899 14.776 77.3899 16.456V25H73.8139V17.344C73.8139 15.456 73.1099 14.512 71.7019 14.512C70.6299 14.512 69.8859 14.888 69.4699 15.64C69.0699 16.376 68.8699 17.44 68.8699 18.832V25H65.2939V6.76H68.8699ZM92.9713 18.424C92.9713 20.6 92.3953 22.28 91.2433 23.464C90.1073 24.648 88.5553 25.24 86.5873 25.24C85.3713 25.24 84.2833 24.976 83.3233 24.448C82.3793 23.92 81.6353 23.152 81.0913 22.144C80.5473 21.12 80.2753 19.88 80.2753 18.424C80.2753 16.248 80.8433 14.576 81.9793 13.408C83.1153 12.24 84.6753 11.656 86.6593 11.656C87.8913 11.656 88.9793 11.92 89.9233 12.448C90.8673 12.976 91.6113 13.744 92.1553 14.752C92.6993 15.76 92.9713 16.984 92.9713 18.424ZM83.9233 18.424C83.9233 19.72 84.1313 20.704 84.5473 21.376C84.9793 22.032 85.6753 22.36 86.6353 22.36C87.5793 22.36 88.2593 22.032 88.6753 21.376C89.1073 20.704 89.3233 19.72 89.3233 18.424C89.3233 17.128 89.1073 16.16 88.6753 15.52C88.2593 14.864 87.5713 14.536 86.6113 14.536C85.6673 14.536 84.9793 14.864 84.5473 15.52C84.1313 16.16 83.9233 17.128 83.9233 18.424ZM103.223 11.656C104.695 11.656 105.887 12.232 106.799 13.384C107.711 14.52 108.167 16.2 108.167 18.424C108.167 20.664 107.695 22.36 106.751 23.512C105.807 24.664 104.599 25.24 103.127 25.24C102.183 25.24 101.431 25.072 100.871 24.736C100.311 24.384 99.8547 23.992 99.5027 23.56H99.3107C99.4387 24.232 99.5027 24.872 99.5027 25.48V30.76H95.9267V11.896H98.8307L99.3347 13.6H99.5027C99.8547 13.072 100.327 12.616 100.919 12.232C101.511 11.848 102.279 11.656 103.223 11.656ZM102.071 14.512C101.143 14.512 100.487 14.808 100.103 15.4C99.7187 15.976 99.5187 16.848 99.5027 18.016V18.4C99.5027 19.664 99.6867 20.64 100.055 21.328C100.439 22 101.127 22.336 102.119 22.336C102.935 22.336 103.535 22 103.919 21.328C104.319 20.64 104.519 19.656 104.519 18.376C104.519 15.8 103.703 14.512 102.071 14.512Z" fill="#0D121C"/>
</svg>
