<svg width="20" height="20" viewBox="0 0 20 20" fill="none" xmlns="http://www.w3.org/2000/svg">
<path d="M10 18.125C10.9167 18.125 11.6667 17.375 11.6667 16.4583H8.33334C8.33334 17.375 9.08334 18.125 10 18.125ZM15 13.125V8.95833C15 6.4 13.6417 4.25833 11.25 3.69167V3.125C11.25 2.43333 10.6917 1.875 10 1.875C9.30834 1.875 8.75001 2.43333 8.75001 3.125V3.69167C6.36668 4.25833 5.00001 6.39167 5.00001 8.95833V13.125L3.33334 14.7917V15.625H16.6667V14.7917L15 13.125ZM13.3333 13.9583H6.66668V8.95833C6.66668 6.89167 7.92501 5.20833 10 5.20833C12.075 5.20833 13.3333 6.89167 13.3333 8.95833V13.9583Z" fill="#0D121C"/>
</svg>
