<svg width="20" height="20" viewBox="0 0 20 20" fill="none" xmlns="http://www.w3.org/2000/svg">
<path fill-rule="evenodd" clip-rule="evenodd" d="M16.6361 2.47719L17.6822 1.43281C17.9263 1.18906 18.323 1.18906 18.567 1.43281C18.811 1.67656 18.811 2.07281 18.567 2.31656L17.5208 3.36219C17.5802 3.48719 17.6265 3.61969 17.6578 3.75906L18.6333 8.10781C18.7741 8.73406 18.5839 9.38906 18.129 9.84344L12.9006 15.0666L11.1305 13.2984C10.8865 13.0547 10.4898 13.0547 10.2457 13.2984C10.0017 13.5422 10.0017 13.9384 10.2457 14.1822L12.0152 15.9503L9.76269 18.2003C9.02937 18.9328 7.84117 18.9328 7.10784 18.2003L1.79999 12.8984C1.06667 12.1666 1.06667 10.9791 1.79999 10.2466L4.05253 7.99656L5.82139 9.76281C6.06542 10.0072 6.46212 10.0072 6.70614 9.76281C6.95017 9.51906 6.95017 9.12281 6.70614 8.87906L4.93789 7.11281L10.1682 1.88782C10.6212 1.43532 11.2744 1.24469 11.9001 1.38281L15.949 2.27594L13.4612 4.76094C12.7592 4.89406 12.228 5.51031 12.228 6.24969C12.228 7.08594 12.9075 7.76469 13.7447 7.76469C14.5819 7.76469 15.2614 7.08594 15.2614 6.24969C15.2614 5.60031 14.8516 5.04594 14.2765 4.83031L16.6336 2.47594L16.6361 2.47719ZM7.59089 11.5309L8.47563 12.4147C8.72028 12.6584 9.11634 12.6584 9.36099 12.4147C9.60502 12.1709 9.60502 11.7747 9.36099 11.5309L8.47563 10.6472C8.23161 10.4028 7.83491 10.4028 7.59089 10.6472C7.34686 10.8909 7.34686 11.2866 7.59089 11.5309Z" fill="var(--Warning-500)"/>
</svg>
